<svg xmlns="http://www.w3.org/2000/svg" aria-hidden="true" overflow="hidden" style="position:absolute;width:0;height:0">
  <defs>
    <symbol id="icon-telegram" viewBox="0 0 32 32">
      <path d="m13.336 19.256 7.424-6.696c.32-.288-.08-.432-.504-.168l-9.16 5.768-3.952-1.232c-.856-.264-.864-.848.192-1.28l15.408-5.936c.704-.32 1.384.168 1.12 1.248L21.24 23.328c-.184.88-.72 1.088-1.456.68l-4-2.952-1.936 1.888c-.216.208-.392.384-.784.384l.272-4.08z"/>
    </symbol>
    <symbol id="icon-facebook" viewBox="0 0 32 32">
      <path d="M17.664 25.408v-8.704h2.4l.32-3h-2.72l.008-1.504c0-.784.08-1.2 1.2-1.2h1.504V8h-2.4c-2.896 0-3.912 1.456-3.912 3.904v1.8h-1.8v3h1.8v8.704h3.6z"/>
    </symbol>
    <symbol id="icon-instagram" viewBox="0 0 32 32">
      <path d="M12.48 7.52c.912-.04 1.2-.056 3.52-.056s2.608.016 3.52.056c.904.04 1.52.184 2.072.4.56.216 1.04.504 1.512.976.472.48.76.96.984 1.52.208.536.352 1.16.4 2.064.032.912.048 1.2.048 3.52s-.016 2.608-.056 3.52c-.018.749-.163 1.458-.415 2.115l.015-.043c-.216.56-.504 1.04-.976 1.512-.48.472-.96.76-1.52.984-.536.208-1.16.352-2.064.4-.912.032-1.2.048-3.52.048s-2.608-.016-3.52-.056c-.749-.017-1.458-.162-2.115-.415l.043.015c-.56-.216-1.04-.504-1.512-.976-.472-.48-.76-.96-.984-1.52-.237-.611-.382-1.318-.4-2.056v-.008c-.032-.912-.048-1.2-.048-3.52s.016-2.608.056-3.52c.016-.748.161-1.458.414-2.115l-.014.043c.216-.56.504-1.04.976-1.512.48-.472.96-.76 1.52-.984.611-.237 1.318-.382 2.057-.4h.007zm3.24 1.488h-.48c-1.6 0-1.904 0-2.688.04-.571.008-1.114.116-1.616.307l.032-.011c-.4.16-.68.344-.984.64-.296.296-.48.584-.64.984-.178.47-.283 1.014-.288 1.582v.002c-.035.761-.055 1.653-.055 2.55 0 .313.002.625.007.937l-.001-.047c0 2.28 0 2.56.048 3.456.008.571.116 1.114.307 1.616l-.011-.032c.152.4.336.68.64.976.296.304.576.48.976.64.304.12.752.256 1.584.296.904.04 1.168.048 3.448.048s2.552-.008 3.448-.048c.571-.008 1.114-.116 1.616-.307l-.032.011c.4-.16.68-.336.984-.64.296-.296.48-.584.64-.976.112-.304.256-.752.288-1.584.04-.904.056-1.176.056-3.448 0-2.28-.016-2.552-.056-3.448-.005-.57-.11-1.114-.299-1.617l.011.033c-.16-.4-.344-.68-.64-.984-.269-.277-.598-.496-.966-.634l-.018-.006c-.47-.178-1.014-.283-1.582-.288h-.002c-.762-.035-1.655-.055-2.552-.055-.312 0-.624.002-.935.007l.047-.001h-.288zM11.616 16c0-2.421 1.963-4.384 4.384-4.384s4.384 1.963 4.384 4.384c0 2.421-1.963 4.384-4.384 4.384S11.616 18.421 11.616 16zm7.232 0c.003-.045.004-.098.004-.151 0-1.573-1.275-2.848-2.848-2.848s-2.848 1.275-2.848 2.848c0 .053.001.106.004.158V16c.114 1.478 1.342 2.635 2.84 2.635s2.726-1.156 2.839-2.625l.001-.01zm.688-4.56c0-.56.456-1.016 1.016-1.016.566 0 1.024.458 1.024 1.024s-.458 1.024-1.024 1.024c-.566 0-1.024-.458-1.024-1.024z"/>
    </symbol>
    <symbol id="icon-smartphone" viewBox="0 0 32 32">
      <path fill="var(--color3, #fff)" stroke="var(--color2, #1e2e36)" stroke-linecap="round" stroke-linejoin="round" stroke-width="2" d="M22.667 2.667H9.334c-1.473 0-2.667 1.194-2.667 2.667v21.333c0 1.467 1.2 2.667 2.667 2.667h13.333c1.473 0 2.667-1.194 2.667-2.667V5.334c0-1.473-1.194-2.667-2.667-2.667zM16 24h.013"/>
    </symbol>
    <symbol id="icon-chevron" viewBox="0 0 32 32">
      <path d="M24.707 11.293c.4.4.4 1.027 0 1.413l-8 8c-.4.4-1.027.4-1.413 0l-8-8c-.166-.178-.268-.418-.268-.682 0-.552.448-1 1-1 .264 0 .504.102.682.269l-.001-.001L16 18.585l7.293-7.293c.4-.4 1.027-.4 1.413 0z"/>
    </symbol>
    <symbol id="icon-logo-black" viewBox="0 0 53 32">
      <path fill="var(--color1, #44c697)" d="M13.581 12.582h24.128V9.173H13.581V3.43h24.128V.025H11.725c-.864 0-1.565.698-1.57 1.561v16.768h3.426v-5.777z"/>
      <path fill="var(--color2, #1e2e36)" d="M41.634 0h-1.882v18.325h3.426V1.531c0-.846-.686-1.532-1.532-1.532h-.014.001z"/>
      <path fill="var(--color2, #1e2e36)" d="M45.901 11.934v9.097H7.433v-9.097H1.954c-1.076 0-1.949.87-1.954 1.945v5.176c.002 1.077.876 1.95 1.954 1.95h1.263l.555 6.396V32H5.18l1.651-4.599h39.671L48.153 32h1.408v-4.599l.555-6.4h1.254c1.101 0 1.963-.879 1.963-1.946V13.88c-.005-1.076-.878-1.946-1.954-1.946H45.901z"/>
    </symbol>
    <symbol id="icon-cart" viewBox="0 0 31 32">
      <path d="M11.613 27.293c-.177 0-.32.143-.32.32s.143.32.32.32c.177 0 .32-.143.32-.32s-.143-.32-.32-.32zm-2.261.32c0-1.249 1.012-2.261 2.261-2.261s2.261 1.012 2.261 2.261-1.012 2.261-2.261 2.261-2.261-1.012-2.261-2.261zm16.454-.32c-.177 0-.32.143-.32.32s.143.32.32.32c.177 0 .32-.143.32-.32s-.143-.32-.32-.32zm-2.26.32c0-1.249 1.012-2.261 2.261-2.261s2.261 1.012 2.261 2.261-1.012 2.261-2.261 2.261-2.261-1.012-2.261-2.261zM.32 1.806c0-.537.434-.97.97-.97h5.161c.465 0 .857.33.95.785l1.135 5.677h21.141c.533.004.964.437.964.97 0 .058-.005.116-.015.171l.001-.006-2.065 10.839c-.334 1.642-1.766 2.86-3.483 2.86h-.061.003-12.579c-1.717 0-3.149-1.218-3.479-2.837l-.004-.023L6.812 8.495c-.007-.024-.014-.055-.02-.087l-.001-.006-1.135-5.626H1.29c-.536 0-.97-.434-.97-.97zm8.599 7.422 1.941 9.662c.15.747.8 1.301 1.58 1.301h.032-.002 12.615c.776 0 1.424-.549 1.576-1.28l.002-.01 1.848-9.672H8.919z"/>
    </symbol>
    <symbol id="icon-left" viewBox="0 0 31 32">
      <path fill="none" stroke="var(--color2, #1e2e36)" d="M15.5 31c8.284 0 15-6.716 15-15s-6.716-15-15-15C7.216 1 .5 7.716.5 16s6.716 15 15 15z"/>
      <path d="M11.68 15.87c0-.21.08-.42.24-.58l4.91-5.05c.144-.15.346-.243.57-.243s.426.093.57.243c.31.32.31.84 0 1.16l-4.35 4.47 4.35 4.47c.31.32.31.84 0 1.16-.144.15-.346.243-.57.243s-.426-.093-.57-.243l-4.91-5.05c-.148-.149-.239-.354-.24-.58z"/>
    </symbol>
    <symbol id="icon-right" viewBox="0 0 33 32">
      <path fill="var(--color2, #1e2e36)" d="M16.533 32c8.837 0 16-7.163 16-16s-7.163-16-16-16-16 7.163-16 16 7.163 16 16 16z"/>
      <path fill="var(--color3, #fff)" d="M20.672 15.861c0 .224-.075.448-.245.619l-5.131 5.387c-.32.341-.853.341-1.184 0-.151-.162-.244-.379-.244-.619s.093-.457.244-.619l4.544-4.768-4.544-4.768c-.151-.162-.244-.379-.244-.619s.093-.457.244-.619v.001c.32-.341.853-.341 1.173 0l5.141 5.387c.171.171.245.395.245.619z"/>
    </symbol>
    <symbol id="icon-living-room" viewBox="0 0 32 32">
      <path d="M14.934 27.898H5.366c-.796 0-1.441-.644-1.443-1.44v-3.722c0-.8.646-1.44 1.44-1.443h9.568c.8 0 1.44.646 1.443 1.44v3.718c0 .797-.646 1.44-1.44 1.44zm-9.568-5.853c-.384 0-.694.31-.694.694v3.715c0 .384.31.691.691.694h9.568c.384 0 .694-.31.694-.694v-3.715c0-.384-.31-.691-.691-.694H5.366z"/>
      <path d="M3.232 27.898H1.44c-.795-.002-1.438-.645-1.44-1.44v-7.12c0-.8.646-1.44 1.44-1.443h1.792c.794 0 1.44.646 1.44 1.44v7.117c0 .797-.646 1.44-1.44 1.44zM1.44 18.65c-.381 0-.688.307-.691.691v7.114c0 .384.31.691.694.694h1.789c.381 0 .691-.31.691-.694v-7.114c0-.384-.31-.694-.691-.694H1.44z"/>
      <path d="M27.702 24.973H4.297c-.208 0-.376-.168-.376-.376s.168-.376.376-.376h23.405c.208 0 .376.168.376.376s-.168.376-.376.376zm-12.768-2.925H5.366c-.797 0-1.443-.646-1.443-1.443v-5.712c0-.797.646-1.44 1.44-1.44h9.568c.8 0 1.44.643 1.443 1.44v5.715c0 .797-.646 1.44-1.44 1.44zm-9.568-7.846c-.384 0-.694.31-.694.691v5.712c0 .384.31.691.691.691h9.568c.384 0 .694-.31.694-.691v-5.712c0-.384-.31-.691-.691-.691H5.366z"/>
      <path d="M26.637 22.048h-9.568c-.797 0-1.443-.646-1.443-1.443v-5.712c0-.797.646-1.44 1.44-1.44h9.568c.8 0 1.44.643 1.443 1.44v5.715c0 .797-.646 1.44-1.44 1.44zm-9.568-7.846c-.384 0-.694.31-.694.691v5.712c0 .384.31.691.691.691h9.568c.384 0 .694-.31.694-.691v-5.712c0-.384-.31-.691-.691-.691h-9.568z"/>
      <path d="M26.637 27.898h-9.568c-.796 0-1.441-.644-1.443-1.44v-3.722c0-.8.646-1.44 1.44-1.443h9.568c.8 0 1.44.646 1.443 1.44v3.718c0 .797-.646 1.44-1.44 1.44zm-9.568-5.853c-.384 0-.694.31-.694.694v3.715c0 .384.31.691.691.694h9.568c.384 0 .694-.31.694-.694v-3.715c0-.384-.31-.691-.691-.694h-9.568z"/>
      <path d="M30.56 27.898h-1.792c-.795-.002-1.438-.645-1.44-1.44v-7.12c0-.8.646-1.44 1.44-1.443h1.792c.794 0 1.44.646 1.44 1.44v7.117c0 .797-.646 1.44-1.44 1.44zm-1.792-9.248c-.381 0-.691.307-.691.691v7.114c0 .384.31.691.691.694h1.792c.381 0 .688-.31.691-.694v-7.114c0-.384-.31-.694-.694-.694h-1.789zm-11.891 3.398h-1.754c-.208 0-.376-.168-.376-.376s.168-.376.376-.376h1.754c.207 0 .374.168.374.374s-.168.374-.374.374zm5.987-9.683H9.136c-.208 0-.374-.17-.374-.374V3.079c0-.205.166-.374.374-.374h13.728c.208 0 .374.17.374.374v8.912c0 .205-.166.374-.374.374zM9.51 11.616h12.979v-8.16H9.51v8.16z"/>
      <path d="M21.616 11.114H10.384c-.205 0-.374-.166-.374-.374V4.33c0-.208.17-.374.374-.374h11.232c.205 0 .374.166.374.374v6.41c0 .208-.17.374-.374.374zm-10.854-.746h10.48V4.704h-10.48v5.664z"/>
      <path d="M11.728 9.741h-.002c-.207 0-.374-.168-.374-.374 0-.104.042-.198.111-.266l1.93-1.93c.147-.144.384-.144.531 0l1.171 1.171c.068.068.11.162.11.266 0 .207-.168.376-.376.376-.104 0-.198-.042-.266-.11l-.906-.906-1.664 1.664c-.07.07-.166.109-.266.109z"/>
      <path d="M20.272 9.722c-.099 0-.195-.038-.266-.109-.982-.981-1.931-1.93-2.88-2.88l-.496-.496-2.093 2.083c-.068.068-.162.111-.266.111-.207 0-.374-.168-.374-.374 0-.103.042-.196.109-.264l2.358-2.352c.07-.07.163-.112.262-.112.102 0 .195.042.266.112.166.16.33.326.493.49l.24.243c.965.966 1.914 1.914 2.864 2.861l.048.048c.068.068.111.162.111.266 0 .207-.168.374-.374.374h-.002z"/>
      <path d="M18.902 8.352c-.099 0-.195-.038-.266-.109l-1.539-1.542c-.068-.068-.111-.162-.111-.266 0-.051.01-.099.028-.143l-.001.002c.239-.571.793-.965 1.439-.965.859 0 1.555.696 1.555 1.555 0 .646-.394 1.2-.955 1.435l-.01.004c-.045.019-.093.029-.141.029zM17.83 6.374l1.133 1.136c.183-.149.299-.374.299-.626 0-.445-.361-.806-.806-.806-.251 0-.476.115-.624.295l-.001.001zm11.834 22.922h-.003c-.46 0-.847-.315-.955-.742l-.001-.007-.23-.934c-.007-.027-.011-.058-.011-.09 0-.207.168-.374.374-.374H30.491c.207 0 .374.168.374.374 0 .032-.004.063-.011.092l.001-.003-.234.934c-.11.433-.496.749-.957.749h-.003zm-.346-1.398.115.467c.026.105.119.182.23.182s.205-.077.23-.18v-.002l.115-.467h-.691zM2.336 29.296h-.003c-.46 0-.847-.315-.955-.742l-.001-.007-.23-.934c-.007-.027-.011-.058-.011-.09 0-.207.168-.374.374-.374H3.163c.207 0 .374.168.374.374 0 .032-.004.063-.011.092l.001-.003-.234.934c-.11.433-.496.749-.957.749zm-.346-1.398.115.467c.026.105.119.182.23.182s.205-.077.23-.18v-.002l.115-.467h-.691z"/>
    </symbol>
    <symbol id="icon-bedroom" viewBox="0 0 32 32">
      <path fill="var(--color1, #44c697)" d="M27.101 10.803H4.896c-.205 0-.374-.166-.374-.374V2.64c0-.208.17-.374.374-.374h22.208c.205 0 .374.166.374.374v7.789c0 .208-.17.374-.374.374zm-21.824-.749H26.72v-7.04H5.28v7.04z"/>
      <path fill="var(--color1, #44c697)" d="M25.376 10.803H6.624c-.208 0-.378-.166-.378-.374V4.362c0-.208.17-.378.374-.378h18.758c.205 0 .374.17.374.378v6.067c0 .208-.17.374-.374.374zm-18.381-.749h18.006V4.736H6.995v5.318z"/>
      <path fill="var(--color1, #44c697)" d="M14.87 10.803H7.753c-.832 0-1.504-.672-1.504-1.504V5.491c0-.832.672-1.504 1.504-1.504h7.117c.832 0 1.504.672 1.504 1.504v3.808c0 .832-.672 1.504-1.504 1.504zM7.754 4.736c-.418 0-.757.338-.758.755v3.808c0 .416.339.755.758.755h7.117c.416 0 .755-.339.755-.758V5.491c0-.416-.339-.755-.755-.755H7.754z"/>
      <path fill="var(--color1, #44c697)" d="M24.246 10.803h-7.117c-.832 0-1.504-.672-1.504-1.504V5.491c0-.832.672-1.504 1.504-1.504h7.117c.832 0 1.504.672 1.504 1.504v3.808c0 .832-.672 1.504-1.504 1.504zM17.13 4.736c-.416.002-.753.339-.755.755v3.808c0 .416.339.755.755.755h7.117c.416 0 .755-.339.755-.758V5.491c0-.416-.336-.755-.755-.755H17.13z"/>
      <path fill="var(--color1, #44c697)" d="M27.37 29.734H4.631c-.832 0-1.504-.672-1.504-1.504V11.558c0-.832.672-1.504 1.504-1.504H27.37c.832 0 1.504.672 1.504 1.504V28.23c0 .832-.672 1.504-1.504 1.504zM4.63 10.803c-.418 0-.757.338-.758.755V28.23c0 .416.339.755.758.755h22.739c.416 0 .755-.339.758-.755V11.558c0-.416-.339-.755-.758-.755H4.63zm22.884-7.789H4.487c-.753 0-1.363-.61-1.363-1.363v-.288C3.124.608 3.732 0 4.487 0h23.027c.752 0 1.363.608 1.363 1.363v.288c0 .752-.608 1.363-1.363 1.363zM4.486.749c-.339 0-.611.275-.614.614v.288c0 .339.275.611.614.614h23.027c.339 0 .611-.275.614-.614v-.288c0-.339-.275-.614-.614-.614H4.486z"/>
      <path fill="var(--color1, #44c697)" d="M27.514 32H4.487c-.753 0-1.363-.61-1.363-1.363v-.288c0-.752.608-1.363 1.363-1.363h23.027c.752 0 1.363.608 1.363 1.363v.288c0 .752-.608 1.363-1.363 1.363zM4.486 29.734c-.339 0-.611.275-.614.614v.288c0 .339.275.614.614.614h23.027c.339 0 .611-.275.614-.614v-.288c0-.339-.275-.611-.614-.614H4.486z"/>
    </symbol>
    <symbol id="icon-armchair" viewBox="0 0 32 32">
      <path d="M24.288 16.851H7.712c-.795-.002-1.438-.645-1.44-1.44V4.998c0-.797.646-1.44 1.44-1.44h16.576c.794 0 1.44.643 1.44 1.44v10.406c0 .8-.646 1.44-1.44 1.443zM7.712 4.307c-.384 0-.691.314-.691.694v10.406c0 .384.31.694.691.694h16.576c.384 0 .691-.31.691-.694V5.001c0-.384-.31-.691-.691-.691H7.712z"/>
      <path d="M24.288 26.208H7.712c-.796-.002-1.44-.647-1.44-1.443v-7.222c0-.794.646-1.44 1.44-1.44h16.576c.794 0 1.44.646 1.44 1.44v7.226c0 .794-.646 1.44-1.44 1.44zm-16.576-9.36c-.384 0-.691.31-.691.691v7.229c0 .381.31.691.691.691h16.576c.384 0 .691-.31.691-.691v-7.226c0-.381-.31-.691-.691-.691H7.712z"/>
      <path d="M30.56 26.208h-4.141c-.797 0-1.443-.646-1.443-1.443V12.109c0-.794.646-1.44 1.44-1.44h4.144c.8 0 1.44.646 1.443 1.44v12.659c0 .794-.646 1.44-1.44 1.44zm-4.141-14.794c-.384 0-.694.31-.694.691v12.662c0 .381.31.691.694.691h4.134c.384 0 .691-.31.694-.691V12.108c0-.381-.31-.691-.694-.691h-4.131zM5.578 26.208H1.444c-.797 0-1.443-.646-1.443-1.443V12.109c0-.794.646-1.44 1.44-1.44h4.138c.8 0 1.44.646 1.443 1.44v12.659c0 .794-.646 1.44-1.44 1.44zM1.443 11.414c-.384 0-.691.31-.694.691v12.662c0 .381.31.691.694.691h4.134c.384 0 .694-.31.694-.691V12.108c0-.381-.31-.691-.694-.691H1.443z"/>
      <path d="M25.354 21.53H6.647c-.208 0-.376-.168-.376-.376s.168-.376.376-.376h18.707c.208 0 .376.168.376.376s-.168.376-.376.376zM3.51 28.442h-.002c-.63 0-1.159-.431-1.308-1.015l-.002-.009-.374-1.498c-.007-.027-.011-.058-.011-.09 0-.207.168-.374.374-.374H4.832c.207 0 .374.168.374.374 0 .032-.004.063-.011.092l.001-.003-.374 1.494c-.151.593-.68 1.024-1.31 1.024H3.51zm-.841-2.237.256 1.027c.065.268.302.464.586.464s.521-.196.585-.46l.001-.004.256-1.024H2.67zm25.821 2.237h-.002c-.63 0-1.159-.431-1.308-1.015l-.002-.009-.374-1.498c-.007-.027-.011-.058-.011-.09 0-.207.168-.374.374-.374H29.812c.207 0 .374.168.374.374 0 .032-.004.063-.011.092l.001-.003-.374 1.494c-.151.593-.68 1.024-1.31 1.024h-.002zm-.842-2.237.256 1.027c.065.268.302.464.586.464s.521-.196.585-.46l.001-.004.256-1.024h-1.683z"/>
    </symbol>
    <symbol id="icon-wardrobe-thumb" viewBox="0 0 32 32">
      <path d="M29.936 13.462H2.064c-.205 0-.374-.166-.374-.374v-8.15c0-.208.17-.374.374-.374h27.872c.205 0 .374.166.374.374v8.15c0 .208-.17.374-.374.374zm-27.494-.748h27.117V5.312H2.442v7.402z"/>
      <path d="M29.936 21.616H2.064c-.205 0-.374-.17-.374-.378v-8.15c0-.205.17-.374.374-.374h27.872c.205 0 .374.17.374.374v8.15c0 .208-.17.378-.374.378zm-27.494-.752h27.117v-7.402H2.442v7.402z"/>
      <path d="M29.936 29.766H2.064c-.205 0-.374-.17-.374-.374v-8.154c0-.205.17-.374.374-.374h27.872c.205 0 .374.17.374.374v8.154c0 .205-.17.374-.374.374zm-27.494-.752h27.117v-7.398H2.442v7.398zM16.704 9.389h-1.408c-.208 0-.376-.168-.376-.376s.168-.376.376-.376h1.408c.208 0 .376.168.376.376s-.168.376-.376.376zm0 8.15h-1.408c-.207 0-.374-.168-.374-.374s.168-.374.374-.374h1.408c.207 0 .374.168.374.374s-.168.374-.374.374z"/>
      <path d="M16.704 25.69h-1.408c-.207 0-.374-.168-.374-.374s.168-.374.374-.374h1.408c.207 0 .374.168.374.374s-.168.374-.374.374zM31.002 5.312h-30c-.552 0-1-.447-1.002-.998V3.232C0 2.678.448 2.23 1.002 2.23h29.997c.554 0 1.002.448 1.002 1.002V4.31c0 .55-.448.998-1.002.998zm-30-2.33H.999c-.138 0-.25.112-.25.25v1.081c0 .138.112.25.253.25h29.997c.141 0 .253-.112.253-.25V3.228c0-.138-.112-.25-.25-.25h-30z"/>
    </symbol>
    <symbol id="icon-wardrobe-high" viewBox="0 0 32 32">
      <path d="M26.483 32H5.513c-.205 0-.374-.166-.374-.374V.375c0-.208.17-.374.374-.374h20.97c.208 0 .378.166.378.374v31.251c0 .208-.17.374-.378.374zm-20.592-.749h20.218V.749H5.891v30.502z"/>
      <path d="M16 22.88c-.208 0-.374-.122-.374-.269V.269c0-.147.166-.269.374-.269s.374.122.374.269v22.342c0 .147-.166.266-.374.266zM16 32H5.514c-.205 0-.374-.166-.374-.374v-4.56c0-.208.17-.378.374-.378H16c.208 0 .374.17.374.378v4.56c0 .208-.166.374-.374.374zm-10.112-.749h9.738V27.44H5.888v3.808z"/>
      <path d="M16 27.44H5.514c-.205 0-.374-.17-.374-.374v-4.563c0-.205.17-.374.374-.374H16c.208 0 .374.17.374.374v4.563c0 .205-.166.374-.374.374zm-10.112-.752h9.738V22.88H5.888v3.808z"/>
      <path d="M11.286 25.158H10.23c-.207 0-.374-.168-.374-.374s.168-.374.374-.374h1.056c.207 0 .374.168.374.374s-.168.374-.374.374zm2.506-12.886c-.208 0-.378-.166-.378-.374v-.918c0-.208.168-.376.376-.376s.376.168.376.376v.918c0 .208-.17.374-.378.374zm4.416 4.56c-.205 0-.374-.166-.374-.371v-.918c0-.208.168-.376.376-.376s.376.168.376.376v.918c0 .205-.17.374-.374.374zm-6.922 12.886H10.23c-.207 0-.374-.168-.374-.374s.168-.374.374-.374h1.056c.207 0 .374.168.374.374s-.168.374-.374.374z"/>
    </symbol>
    <symbol id="icon-kitchen" viewBox="0 0 32 32">
      <path d="M21.693 29.162H10.304c-.208 0-.374-.166-.374-.374v-8.723c0-.205.166-.374.374-.374h11.392c.205 0 .374.17.374.374v8.72c0 .208-.166.374-.374.374zm-11.008-.749h10.634v-7.968H10.682v7.968z"/>
      <path d="M21.693 30.765H10.304c-.208 0-.374-.166-.374-.374v-1.603c0-.208.166-.374.374-.374h11.392c.205 0 .374.166.374.374v1.603c0 .208-.166.374-.374.374zm-11.008-.749h10.634v-.854H10.682v.854zm11.008-9.571H10.304c-.208 0-.374-.17-.374-.378v-3.696c0-.205.166-.374.374-.374h11.392c.205 0 .374.17.374.374v3.696c0 .208-.166.378-.374.378zm-11.008-.752h10.634v-2.944H10.682v2.944z"/>
      <path d="M16 19.437c-.672 0-1.216-.544-1.216-1.216s.544-1.216 1.216-1.216c.672 0 1.216.544 1.216 1.216s-.544 1.216-1.216 1.216zm0-1.683c-.257 0-.466.208-.466.466s.208.466.466.466c.256 0 .464-.208.464-.464s-.208-.464-.464-.464zm3.158 1.683c-.672 0-1.216-.544-1.216-1.216s.544-1.216 1.216-1.216c.672 0 1.216.544 1.216 1.216s-.544 1.216-1.216 1.216zm0-1.683c-.257 0-.466.208-.466.466s.208.466.466.466c.256 0 .464-.208.464-.464s-.208-.464-.464-.464zm-6.316 1.683c-.672 0-1.216-.544-1.216-1.216s.544-1.216 1.216-1.216c.672 0 1.216.544 1.216 1.216s-.544 1.216-1.216 1.216zm0-1.683c-.257 0-.466.208-.466.466s.208.466.466.466c.256 0 .464-.208.464-.464s-.208-.464-.464-.464zm6.646 4.883h-6.976c-.488 0-.883-.395-.883-.883s.395-.883.883-.883h6.978c.488 0 .883.395.883.883s-.395.882-.881.883zm-6.976-1.015c-.072 0-.131.059-.131.131s.059.131.131.131h6.976c.072 0 .131-.059.131-.131s-.059-.131-.131-.131h-6.976z"/>
      <path d="M19.158 27.965h-6.317c-.205 0-.374-.17-.374-.374V22.26c0-.205.17-.374.374-.374h6.317c.205 0 .374.17.374.374v5.331c0 .205-.17.374-.374.374zm-5.942-.749h5.568v-4.579h-5.568v4.576zm.288-10.47c-.211 0-.378-.166-.378-.374v-.928c0-.207.168-.374.374-.374s.374.168.374.374v.928c0 .208-.166.374-.374.374zm1.776 0c-.208 0-.378-.166-.378-.374v-.554h-.499c-.208 0-.376-.168-.376-.376s.168-.376.376-.376h.877c.205 0 .374.17.374.374v.931c0 .208-.17.374-.374.374zm-3.555 0c-.208 0-.378-.166-.378-.374v-.928c0-.208.17-.378.378-.378h.874c.208 0 .376.168.376.376s-.168.376-.376.376H12.1v.554c0 .208-.17.374-.374.374zm6.771 0c-.205 0-.371-.166-.371-.374v-.928c0-.207.168-.374.374-.374s.374.168.374.374v.928c0 .208-.166.374-.374.374zm-1.776 0c-.205 0-.374-.166-.374-.374v-.928c0-.208.17-.378.374-.378h.88c.208 0 .376.168.376.376s-.168.376-.376.376h-.499v.554c0 .208-.17.374-.378.374zm3.555 0c-.205 0-.374-.166-.374-.374v-.554h-.499c-.208 0-.376-.168-.376-.376s.168-.376.376-.376h.874c.208 0 .378.17.378.374v.931c0 .208-.17.374-.378.374zm3.229 1.366h-.672c-.207 0-.374-.168-.374-.374s.168-.374.374-.374h.672c.207 0 .374.168.374.374s-.168.374-.374.374z"/>
      <path d="M24.646 30.765h-2.954c-.208 0-.374-.166-.374-.374V16.375c0-.208.166-.378.374-.378h2.954c.208 0 .374.17.374.374V30.39c0 .208-.166.374-.374.374zm-2.579-.749h2.205v-13.27h-2.205v13.27z"/>
      <path d="M31.626 23.757h-6.979c-.208 0-.374-.17-.374-.374v-7.008c0-.208.166-.378.374-.378h6.976c.211 0 .378.17.378.374v7.008c0 .208-.166.378-.374.378zm-6.605-.749h6.23v-6.262h-6.23v6.262z"/>
      <path d="M29.034 18.112h-1.798c-.207 0-.374-.168-.374-.374s.168-.374.374-.374h1.798c.207 0 .374.168.374.374s-.168.374-.374.374zm-22.794 0H4.442c-.207 0-.374-.168-.374-.374s.168-.374.374-.374H6.24c.207 0 .374.168.374.374s-.168.374-.374.374zm25.386 12.653h-6.979c-.208 0-.374-.166-.374-.374v-7.008c0-.208.166-.374.374-.374h6.976c.211 0 .378.166.378.374v7.008c0 .208-.166.374-.374.374zm-6.605-.749h6.23v-6.259h-6.23v6.259z"/>
      <path d="M29.034 25.12h-1.798c-.207 0-.374-.168-.374-.374s.168-.374.374-.374h1.798c.208 0 .376.168.376.376s-.168.376-.376.376zm-23.69 5.645H.371c-.208 0-.374-.166-.374-.374V20.068c0-.205.166-.374.374-.374h4.973c.208 0 .374.17.374.374v10.323c0 .208-.166.374-.374.374zm-4.598-.749h4.218v-9.568H.75v9.568z"/>
      <path d="M10.307 30.765H5.344c-.208 0-.374-.166-.374-.374V20.068c0-.205.166-.374.374-.374h4.966c.208 0 .374.17.374.374v10.323c0 .208-.166.374-.374.374zm-4.592-.749h4.218v-9.568H5.715v9.568z"/>
      <path d="M6.528 26.23c-.208 0-.374-.17-.374-.378v-1.248c0-.207.168-.374.374-.374s.374.168.374.374v1.248c0 .208-.17.378-.374.378zm-2.371 0c-.208 0-.378-.17-.378-.378v-1.248c0-.208.168-.376.376-.376s.376.168.376.376v1.248c0 .208-.17.378-.374.378zm6.15-5.785H.374c-.208 0-.374-.17-.374-.381v-3.693C0 16.166.166 16 .374 16h9.933c.208 0 .374.17.374.374v3.696c0 .208-.166.378-.374.378zm-9.558-.752h9.184v-2.944H.749v2.944zM21.27 8.89H10.729c-.44-.002-.797-.359-.797-.8V7.015c0-.442.358-.8.8-.8H21.27c.44.002.797.359.797.8V8.09c0 .442-.358.8-.8.8zM10.73 6.966c-.027 0-.048.021-.048.048v1.075c0 .029.022.048.048.048h10.541c.026 0 .048-.019.048-.048V7.014c0-.027-.021-.048-.048-.048H10.73z"/>
      <path d="M20.486 6.966h-8.973c-.437 0-.79-.354-.79-.79 0-.251.117-.475.3-.62l.002-.001.288-.224c1.109-.867 1.814-2.205 1.814-3.707v-.015.001c0-.208.166-.374.374-.374h4.998c.208 0 .374.166.374.374v.014c0 1.501.705 2.838 1.801 3.697l.01.008.288.224c.186.146.305.371.305.624 0 .437-.354.79-.79.79h-.001zm-6.624-4.982c-.108 1.603-.895 3.004-2.075 3.927l-.012.009-.288.224c-.009.008-.015.019-.015.032 0 .023.018.041.041.042h8.973c.023-.001.041-.019.041-.042 0-.013-.006-.024-.015-.032l-.288-.224c-1.191-.932-1.979-2.333-2.085-3.919l-.001-.017h-4.275zM30.464 8.89h-5.968c-.52 0-.941-.421-.941-.941s.421-.941.941-.941h5.968c.52 0 .941.421.941.941s-.421.941-.941.941zm-5.968-1.13c-.09.017-.157.095-.157.189s.067.172.156.189h5.969c.09-.017.157-.095.157-.189s-.067-.172-.156-.189h-5.969zM7.504 8.89H1.536c-.52 0-.941-.421-.941-.941s.421-.941.941-.941h5.968c.52 0 .941.421.941.941s-.421.941-.941.941zM1.536 7.76c-.01-.002-.023-.003-.035-.003-.106 0-.192.086-.192.192s.086.192.192.192c.012 0 .024-.001.036-.003h-.001 5.968c.011.002.023.003.035.003.106 0 .192-.086.192-.192s-.086-.192-.192-.192c-.012 0-.024.001-.036.003h.001-5.968z"/>
      <path d="M6.906 7.76h-1.53c-.208 0-.374-.17-.374-.374v-1.29c0-.208.166-.378.374-.378h1.526c.205 0 .374.17.374.378v1.29c0 .205-.17.374-.374.374zm-1.152-.752h.778V6.47h-.778v.538z"/>
      <path d="M7.264 6.47h-2.24c-.208 0-.376-.168-.376-.376s.168-.376.376-.376h2.243c.208 0 .376.168.376.376s-.168.376-.376.376zM3.661 7.76H2.135c-.208 0-.374-.17-.374-.374v-1.29c0-.208.166-.378.374-.378h1.526c.205 0 .374.17.374.378v1.29c0 .205-.17.374-.374.374zm-1.152-.752h.778V6.47h-.778v.538z"/>
      <path d="M4.019 6.47H1.776c-.208 0-.376-.168-.376-.376s.168-.376.376-.376h2.243c.208 0 .376.168.376.376s-.168.376-.376.376zm2.887 0h-1.53c-.208 0-.374-.17-.374-.374v-1.29c0-.208.166-.374.374-.374h1.526c.205 0 .374.166.374.374v1.29c0 .205-.17.374-.374.374zm-1.152-.752h.778v-.534h-.778v.538z"/>
      <path d="M7.264 5.181h-2.24c-.207 0-.374-.168-.374-.374s.168-.374.374-.374h2.243c.207 0 .374.168.374.374s-.168.374-.374.374zM3.661 6.47H2.135c-.208 0-.374-.17-.374-.374v-1.29c0-.208.166-.374.374-.374h1.526c.205 0 .374.166.374.374v1.29c0 .205-.17.374-.374.374zm-1.152-.752h.778v-.534h-.778v.538z"/>
      <path d="M4.019 5.181H1.776c-.207 0-.374-.168-.374-.374s.168-.374.374-.374h2.243c.207 0 .374.168.374.374s-.168.374-.374.374zM27.482 7.76h-.001c-1.336 0-2.419-1.083-2.419-2.419 0-.478.139-.924.378-1.299l-.006.01c.064-.109.186-.176.314-.176h3.469c.128 0 .25.064.317.176.234.366.372.811.372 1.29 0 1.336-1.083 2.419-2.419 2.419h-.001zm-1.514-3.136c-.1.208-.158.452-.158.71 0 .923.748 1.67 1.67 1.67s1.67-.748 1.67-1.67c0-.258-.058-.502-.163-.72l.004.01h-3.024z"/>
      <path d="M27.446 4.627c-.208 0-.378-.17-.378-.378V1.836c0-.208.168-.376.376-.376s.376.168.376.376v2.413c0 .208-.17.378-.374.378z"/>
      <path d="M27.446 4.627h-.002c-.207 0-.374-.168-.374-.374 0-.104.042-.198.11-.266l1.296-1.299c.068-.068.162-.11.266-.11.207 0 .376.168.376.376 0 .104-.042.198-.11.266l-1.296 1.293c-.07.07-.166.112-.266.112z"/>
      <path d="M27.446 4.627c-.099 0-.195-.042-.266-.112l-1.299-1.296c-.07-.068-.113-.163-.113-.269 0-.207.168-.376.376-.376.102 0 .195.041.262.107l1.306 1.306c.068.068.111.162.111.266 0 .207-.168.374-.374.374h-.002zm-7.971 11.191h-1.83c-1.037-.002-1.877-.842-1.878-1.878v-.883c0-.208.17-.374.374-.374h4.838c.205 0 .374.166.374.374v.883c-.002 1.037-.842 1.877-1.878 1.878zm-2.957-2.388v.509c.002.621.505 1.125 1.126 1.126h1.831c.621-.002 1.125-.505 1.126-1.126v-.509h-4.083z"/>
      <path d="M21.693 14.093h-.714c-.208 0-.376-.168-.376-.376s.168-.376.376-.376h.714c.208 0 .376.168.376.376s-.168.376-.376.376zm-5.674 0h-.714c-.208 0-.376-.168-.376-.376s.168-.376.376-.376h.714c.208 0 .376.168.376.376s-.168.376-.376.376z"/>
      <path d="M20.979 13.43h-4.838c-.206-.001-.372-.168-.372-.374 0-.079.024-.152.066-.212l-.001.001c.525-.765 1.568-1.238 2.726-1.238s2.202.474 2.726 1.238c.041.059.065.132.065.211 0 .206-.167.373-.372.374zm-3.83-.748h2.822c-.412-.205-.898-.325-1.411-.325s-.999.12-1.43.334l.019-.008z"/>
      <path d="M18.102 12.384c-.093 0-.182-.032-.25-.096-.22-.196-.358-.48-.358-.797 0-.588.477-1.066 1.066-1.066s1.066.477 1.066 1.066c0 .317-.138.601-.357.796l-.001.001c-.068.067-.161.109-.264.109-.207 0-.374-.168-.374-.374 0-.117.054-.222.138-.291l.001-.001c.065-.058.106-.141.106-.235 0-.173-.14-.314-.314-.314s-.314.14-.314.314c0 .093.041.177.105.234.076.069.124.168.124.278 0 .207-.167.374-.374.374zM4.448 16.746H2.864c-.205 0-.374-.166-.374-.374v-4.026c0-.208.17-.378.374-.378h1.584c.208 0 .374.17.374.378v4.026c0 .208-.166.374-.374.374zM3.238 16h.835v-3.28h-.832v3.277z"/>
      <path d="M2.864 16.746H1.28c-.205 0-.374-.166-.374-.374v-4.026c0-.208.17-.378.374-.378h1.584c.208 0 .374.17.374.378v4.026c0 .208-.166.374-.374.374zM1.658 16h.832v-3.28h-.832v3.277zm6.268.746h-.704c-.716 0-1.297-.58-1.299-1.296v-1.312c0-.208.17-.378.378-.378h2.547c.208 0 .378.17.378.374v1.315c-.002.716-.583 1.296-1.299 1.296zm-1.251-2.234v.938c0 .304.243.544.544.547h.707c.304 0 .547-.243.547-.544v-.941H6.675z"/>
      <path d="M9.069 14.512H6.08c-.39 0-.707-.32-.707-.71v-.387c0-.39.317-.71.707-.71h2.989c.39 0 .707.32.707.71v.387c0 .39-.317.707-.707.71zm-2.947-.752h2.906v-.304H6.122v.304zm18.828 2.986h-1.93c-.208 0-.378-.166-.378-.374v-2.637c0-.208.17-.378.378-.378h1.93c.208 0 .374.17.374.378v2.637c0 .208-.166.374-.374.374zM23.395 16h1.181v-1.888h-1.184V16z"/>
      <path d="M24.95 14.109h-1.93c-.208 0-.378-.17-.378-.374v-1.152c0-.208.17-.378.378-.378h1.93c.208 0 .374.17.374.374v1.152c0 .208-.166.378-.374.378zm-1.555-.752h1.181v-.397h-1.184v.4zm6.186 2.121c-.614 0-1.094-.589-1.094-1.344 0-.752.48-1.344 1.094-1.344.611 0 1.091.592 1.091 1.344 0 .755-.48 1.344-1.091 1.344zm0-1.936c-.16 0-.342.256-.342.592 0 .339.179.595.342.595.16 0 .342-.256.342-.595s-.182-.592-.342-.592z"/>
      <path d="M29.581 13.536c-.176 0-.326-.122-.368-.291l-.573-2.499c-.015-.064-.024-.138-.024-.214 0-.532.431-.963.963-.963s.963.431.963.963c0 .076-.009.149-.025.22l.001-.007-.576 2.499c-.035.17-.189.291-.362.291zm0-3.219c-.118.001-.213.097-.213.214 0 .016.002.031.005.046v-.001l.208.906.208-.906c.003-.013.005-.029.005-.045 0-.118-.095-.213-.213-.214zm-2.701 3.219c-.173 0-.323-.122-.362-.291l-.576-2.499c-.013-.06-.021-.128-.021-.199 0-.53.43-.96.96-.96s.96.43.96.96c0 .07-.008.139-.022.205l.001-.006-.573 2.499c-.038.17-.192.291-.365.291zm0-3.219c-.116.003-.21.098-.21.214 0 .016.002.031.005.046v-.001l.208.906.208-.906c.003-.013.005-.029.005-.045 0-.118-.095-.213-.213-.214z"/>
      <path d="M27.744 14.749h-1.725c-.186 0-.342-.138-.368-.32-.064-.435.061-.874.346-1.206.212-.259.526-.427.881-.442h.002c.32 0 .643.16.886.442.225.262.362.605.362.98 0 .079-.006.156-.018.232l.001-.008c-.026.186-.186.32-.371.32zm-1.331-.752h.941c-.03-.11-.082-.206-.151-.286l.001.001c-.096-.109-.224-.179-.32-.179-.099 0-.224.07-.32.179-.07.083-.125.182-.15.288z"/>
    </symbol>
    <symbol id="icon-to-top-arrow" viewBox="0 0 32 32">
      <path fill="var(--color1, #44c697)" d="M26.811 14.27c0 5.971-4.84 10.811-10.811 10.811S5.189 20.241 5.189 14.27 10.029 3.459 16 3.459s10.811 4.84 10.811 10.811z"/>
      <path fill="var(--color3, #fff)" d="M16.303 10.625c-.078-.076-.185-.124-.303-.124s-.225.047-.303.124l-2.755 2.75c-.065.075-.104.174-.104.281 0 .239.194.432.432.432.108 0 .206-.039.282-.104h-.001l2.448-2.439 2.448 2.443c.075.065.174.104.281.104.239 0 .432-.194.432-.432 0-.108-.039-.206-.104-.282v.001l-2.75-2.75zm.129 7.183v-6.876h-.865v6.876h.865z"/>
    </symbol>
    <symbol id="icon-logo-white" viewBox="0 0 53 32">
      <path fill="var(--color1, #44c697)" d="M13.581 12.582h24.128V9.173H13.581V3.43h24.128V.025H11.725c-.864 0-1.565.698-1.57 1.561v16.768h3.426v-5.777z"/>
      <path fill="var(--color3, #fff)" d="M41.634 0h-1.882v18.325h3.426V1.531c0-.846-.686-1.532-1.532-1.532h-.014.001z"/>
      <path fill="var(--color3, #fff)" d="M45.901 11.93v9.105H7.433V11.93H1.954c-1.078 0-1.952.872-1.954 1.95v5.176c.002 1.077.876 1.95 1.954 1.95h1.263l.555 6.396v4.599H5.18l1.651-4.599h39.671l1.651 4.599h1.408v-4.599l.555-6.4h1.254c1.101 0 1.963-.879 1.963-1.946v-5.175c-.002-1.077-.876-1.95-1.954-1.95H45.901z"/>
    </symbol>
    <symbol id="icon-map-pin" viewBox="0 0 32 32">
      <path fill="var(--color3, #fff)" d="M16 2.333c-6.075 0-11 4.925-11 11 0 4.267 2.76 8.36 5.733 11.467 1.595 1.681 3.316 3.208 5.161 4.578l.106.075c.307-.227.747-.533 1.253-.947 1.093-.88 2.56-2.133 4.027-3.68 2.96-3.12 5.72-7.213 5.72-11.48v-.013c0-6.075-4.925-11-11-11zm0 28.334-.56.827-.04-.027c-.225-.147-.39-.261-.553-.378l.046.032c-2.087-1.53-3.926-3.149-5.611-4.917l-.016-.017c-3.027-3.2-6.267-7.787-6.267-12.853 0-7.18 5.82-13 13-13s13 5.82 13 13c0 5.067-3.24 9.64-6.267 12.853-1.84 1.924-3.846 3.659-6.005 5.193l-.128.087-.027.027h-.013l-.56-.827zm0 0 .56.827c-.157.107-.351.172-.56.172s-.403-.064-.563-.174l.003.002.56-.827z"/>
      <path fill="var(--color3, #fff)" d="M16 10.333c-1.657 0-3 1.343-3 3s1.343 3 3 3 3-1.343 3-3-1.343-3-3-3zm-5 3c0-2.761 2.239-5 5-5s5 2.239 5 5-2.239 5-5 5-5-2.239-5-5z"/>
    </symbol>
    <symbol id="icon-calendar" viewBox="0 0 32 32">
      <path fill="var(--color3, #fff)" d="M6.667 6.333C5.747 6.333 5 7.08 5 8v18.667c0 .92.747 1.667 1.667 1.667h18.667c.92 0 1.667-.747 1.667-1.667V8c0-.92-.747-1.667-1.667-1.667H6.667zM3 8c0-2.025 1.642-3.667 3.667-3.667h18.667c2.025 0 3.667 1.642 3.667 3.667v18.667c0 2.025-1.642 3.667-3.667 3.667H6.667C4.642 30.334 3 28.692 3 26.667V8z"/>
      <path fill="var(--color3, #fff)" d="M21.333 1.667c.547 0 1 .453 1 1V8c0 .552-.448 1-1 1s-1-.448-1-1V2.667c0-.547.453-1 1-1zm-10.666 0c.547 0 1 .453 1 1V8c0 .552-.448 1-1 1s-1-.448-1-1V2.667c0-.547.453-1 1-1zM3 13.333c0-.547.453-1 1-1h24c.552 0 1 .448 1 1s-.448 1-1 1H4c-.552 0-1-.448-1-1z"/>
    </symbol>
    <symbol id="icon-brand-gloss" viewBox="0 0 30 32">
      <path fill="var(--color4, #ffd001)" d="M16.914 0C9.204 2.636 2.682 8 0 16c2.636 7.909 9.097 13.333 16.914 16 6.979-5.41 10.773-9.752 13.562-16-3.547-2.209-6.52-4.983-8.883-8.23l-.062-.09c-4.523 1.982-8.356 4.764-11.48 8.201l-.024.027c1.219 1.737 3.2 3.352 4.83 4.678 2.008-1.444 3.754-3.059 5.283-4.864l.035-.042c.731.899 1.554 1.493 2.331 1.996-1.749 2.987-4.147 5.419-7.011 7.157l-.09.05c-4.221-2.255-7.619-6.141-9.25-9.448 3.102-4.924 7.748-8.633 13.249-10.478l.176-.051c-.884-1.585-2.057-3.048-2.651-4.907z"/>
    </symbol>
  </defs>
</svg>
